<?xml version="1.0" encoding="utf-8"?>
<!-- Generator: Adobe Illustrator 27.5.0, SVG Export Plug-In . SVG Version: 6.00 Build 0)  -->
<svg version="1.1" id="Layer_1" xmlns="http://www.w3.org/2000/svg" xmlns:xlink="http://www.w3.org/1999/xlink" x="0px" y="0px"
	 viewBox="0 0 500 500" style="enable-background:new 0 0 500 500;" xml:space="preserve">
<path style="fill:#00AEEF;" d="M387.228,177.367c-11.13,34.486-43.366,73.568-89.334,103.711
	c-72.805,47.728-152.476,54.946-177.925,16.118c-20.754-31.63,0.9-84.072,49-128.221c-33.429,36.031-47.005,75.876-30.808,102.342
	c23.082,37.713,97.804,33.997,166.912-8.294C344.703,238.768,373.887,207.099,387.228,177.367z"/>
<polygon style="fill:#1B75BC;" points="219.94,139.27 219.91,178.03 219.88,207.88 192.13,199.75 192.13,155.91 "/>
<polygon style="fill:#1B75BC;" points="247.74,78.48 247.74,207.3 243.37,210.9 243.25,211 243.28,174.98 243.3,148.69 
	220.49,135.86 208.76,142.96 208.76,111.9 "/>
<g>
	<path style="fill:#58595B;" d="M177.143,242.738h-6.531v0c0-3.607,2.924-6.531,6.531-6.531l0,0V242.738z"/>
	<path style="fill:#58595B;" d="M185.307,242.738h-6.531v-6.531h0C182.383,236.207,185.307,239.131,185.307,242.738L185.307,242.738
		z"/>
	<rect x="170.612" y="244.326" style="fill:#58595B;" width="6.531" height="5.715"/>
	<rect x="178.776" y="244.326" style="fill:#58595B;" width="6.531" height="5.715"/>
</g>
<g>
	<path style="fill:#58595B;" d="M231.033,269.965h-6.965l0,0c0-3.847,3.119-6.965,6.965-6.965h0V269.965z"/>
	<path style="fill:#58595B;" d="M239.74,269.965h-6.965V263h0C236.622,263,239.74,266.119,239.74,269.965L239.74,269.965z"/>
	<rect x="224.068" y="271.659" style="fill:#58595B;" width="6.965" height="6.095"/>
	<rect x="232.775" y="271.659" style="fill:#58595B;" width="6.965" height="6.095"/>
</g>
<g>
	<path style="fill:#58595B;" d="M285.259,240.585h-8.756l0,0c0-4.836,3.92-8.756,8.756-8.756l0,0V240.585z"/>
	<path style="fill:#58595B;" d="M296.203,240.585h-8.756v-8.756l0,0C292.283,231.829,296.203,235.749,296.203,240.585
		L296.203,240.585z"/>
	<rect x="276.503" y="242.714" style="fill:#58595B;" width="8.756" height="7.661"/>
	<rect x="287.448" y="242.714" style="fill:#58595B;" width="8.756" height="7.661"/>
</g>
<polygon style="fill:#00AEEF;" points="297,94.87 297,199.82 295.47,198.48 295.31,198.34 295.31,93.8 295.47,93.9 "/>
<polygon style="fill:#00AEEF;" points="300.75,97.25 300.75,203.09 299.17,201.71 299.17,96.25 "/>
<polygon style="fill:#1B75BC;" points="306.53,119.04 306.53,208.13 305.09,206.87 305.09,119.88 "/>
<polygon style="fill:#00AEEF;" points="251.45,80.35 251.45,203.61 249.87,204.97 249.87,79.5 "/>
<polygon style="fill:#00AEEF;" points="255.14,82.32 255.14,200.43 253.58,201.78 253.58,81.49 "/>
<polygon style="fill:#00AEEF;" points="258.84,84.29 258.84,197.24 257.28,198.59 257.28,83.46 "/>
<polygon style="fill:#00AEEF;" points="262.54,86.27 262.54,194.66 261.71,194.83 260.97,195.4 260.97,85.43 "/>
<polygon style="fill:#1B75BC;" points="293.24,95.53 293.24,196.54 287.16,191.26 272.82,193.47 272.82,112.63 "/>
<polygon style="fill:#1B75BC;" points="322.28,129.1 322.28,221.88 308.69,210.02 308.59,209.93 308.59,117.85 308.69,117.93 "/>
<polygon style="fill:#00AEEF;" points="223.62,140.04 223.62,209.21 222.25,208.81 222.25,139.27 "/>
<polygon style="fill:#00AEEF;" points="227.12,142.01 227.12,210.25 225.75,209.84 225.75,141.24 "/>
<polygon style="fill:#00AEEF;" points="230.62,143.97 230.62,211.28 229.25,210.88 229.25,143.2 "/>
<polygon style="fill:#00AEEF;" points="234.12,145.93 234.12,212.32 232.75,211.91 232.75,145.17 "/>
<polygon style="fill:#00AEEF;" points="237.62,147.9 237.62,213.35 236.25,212.94 236.25,147.13 "/>
<polygon style="fill:#00AEEF;" points="241.12,149.86 241.12,212.5 239.75,213.68 239.75,149.09 "/>
<polygon style="fill:#58595B;" points="318.784,231.065 286.265,209.234 256.145,231.478 286.265,213.667 "/>
<polygon style="fill:#58595B;" points="151.212,246.499 177.973,213.798 208.167,246.083 177.959,218.12 "/>
<polygon style="fill:#00AEEF;" points="275.902,268.8 231.931,229.05 167.971,282.601 231.901,239.437 261.354,261.3 261.354,268.8 
	"/>
<polygon style="fill:#00AEEF;" points="240.441,236.743 286.265,194.429 334.189,236.24 321.25,236.24 321.25,229.012 
	286.25,205.417 253.5,229.167 253.5,236.743 "/>
<polygon style="fill:#58595B;" points="258.354,262.81 231.871,243.079 174.532,281.766 231.875,246.877 "/>
<polygon style="fill:#00AEEF;" points="212.62,245.32 212.62,247.079 177.9,209.4 148.21,245.35 148.21,253.18 137.55,253.18 
	177.9,199.21 "/>
<polygon style="fill:#1B619C;" points="286.265,194.429 240.441,236.743 232,229.18 212.62,245.32 177.9,199.21 240.3,217.66 
	263.17,197.97 "/>
<linearGradient id="SVGID_1_" gradientUnits="userSpaceOnUse" x1="179.6893" y1="262.4227" x2="179.6893" y2="218.1204">
	<stop  offset="0.1933" style="stop-color:#130C0E;stop-opacity:0"/>
	<stop  offset="0.307" style="stop-color:#211B1D;stop-opacity:0.0917"/>
	<stop  offset="0.5265" style="stop-color:#464245;stop-opacity:0.2685"/>
	<stop  offset="0.8266" style="stop-color:#828184;stop-opacity:0.5103"/>
	<stop  offset="1" style="stop-color:#A7A9AC;stop-opacity:0.65"/>
</linearGradient>
<polygon style="fill:url(#SVGID_1_);" points="151.212,262.423 151.212,246.499 177.959,218.12 208.167,246.083 208.167,262.423 "/>
<linearGradient id="SVGID_00000028308147039011134810000008165786015111548055_" gradientUnits="userSpaceOnUse" x1="222.2446" y1="285.6667" x2="222.2446" y2="246.8765">
	<stop  offset="0.1933" style="stop-color:#130C0E;stop-opacity:0"/>
	<stop  offset="0.307" style="stop-color:#211B1D;stop-opacity:0.0917"/>
	<stop  offset="0.5265" style="stop-color:#464245;stop-opacity:0.2685"/>
	<stop  offset="0.8266" style="stop-color:#828184;stop-opacity:0.5103"/>
	<stop  offset="1" style="stop-color:#A7A9AC;stop-opacity:0.65"/>
</linearGradient>
<polyline style="fill:url(#SVGID_00000028308147039011134810000008165786015111548055_);" points="258.354,281.766 258.354,262.81 
	231.875,246.877 186.135,274.707 186.135,285.667 "/>
<linearGradient id="SVGID_00000075155842246671442730000017154568740315184303_" gradientUnits="userSpaceOnUse" x1="287.4649" y1="253.18" x2="287.4649" y2="213.6667">
	<stop  offset="0.1933" style="stop-color:#130C0E;stop-opacity:0"/>
	<stop  offset="0.307" style="stop-color:#211B1D;stop-opacity:0.0917"/>
	<stop  offset="0.5265" style="stop-color:#464245;stop-opacity:0.2685"/>
	<stop  offset="0.8266" style="stop-color:#828184;stop-opacity:0.5103"/>
	<stop  offset="1" style="stop-color:#A7A9AC;stop-opacity:0.65"/>
</linearGradient>
<polyline style="fill:url(#SVGID_00000075155842246671442730000017154568740315184303_);" points="256.145,250.94 256.145,231.478 
	286.265,213.667 318.784,231.065 318.784,253.18 "/>
<linearGradient id="SVGID_00000088818358745287826470000002615748738950826892_" gradientUnits="userSpaceOnUse" x1="228.25" y1="211" x2="228.25" y2="78.48">
	<stop  offset="0" style="stop-color:#231F20;stop-opacity:0.7"/>
	<stop  offset="0.1769" style="stop-color:#201B1C;stop-opacity:0.5762"/>
	<stop  offset="1" style="stop-color:#130C0E;stop-opacity:0"/>
</linearGradient>
<polygon style="fill:url(#SVGID_00000088818358745287826470000002615748738950826892_);" points="247.74,78.48 247.74,207.3 
	243.37,210.9 243.25,211 243.28,174.98 243.3,148.69 220.49,135.86 208.76,142.96 208.76,111.9 "/>
<linearGradient id="SVGID_00000020394411390224803080000008077107304710102714_" gradientUnits="userSpaceOnUse" x1="206.035" y1="207.88" x2="206.035" y2="139.27">
	<stop  offset="0" style="stop-color:#231F20;stop-opacity:0.7"/>
	<stop  offset="0.1769" style="stop-color:#201B1C;stop-opacity:0.5762"/>
	<stop  offset="1" style="stop-color:#130C0E;stop-opacity:0"/>
</linearGradient>
<polygon style="fill:url(#SVGID_00000020394411390224803080000008077107304710102714_);" points="219.94,139.27 219.91,178.03 
	219.88,207.88 192.13,199.75 192.13,155.91 "/>
<linearGradient id="SVGID_00000173880769572238445660000015964122704980010656_" gradientUnits="userSpaceOnUse" x1="283.03" y1="196.54" x2="283.03" y2="95.53">
	<stop  offset="0" style="stop-color:#231F20;stop-opacity:0.7"/>
	<stop  offset="0.1769" style="stop-color:#201B1C;stop-opacity:0.5762"/>
	<stop  offset="1" style="stop-color:#130C0E;stop-opacity:0"/>
</linearGradient>
<polygon style="fill:url(#SVGID_00000173880769572238445660000015964122704980010656_);" points="293.24,95.53 293.24,196.54 
	287.16,191.26 272.82,193.47 272.82,112.63 "/>
<linearGradient id="SVGID_00000103261298648739545620000005003832893426675645_" gradientUnits="userSpaceOnUse" x1="315.435" y1="221.88" x2="315.435" y2="117.85">
	<stop  offset="0" style="stop-color:#231F20;stop-opacity:0.7"/>
	<stop  offset="0.1769" style="stop-color:#201B1C;stop-opacity:0.5762"/>
	<stop  offset="1" style="stop-color:#130C0E;stop-opacity:0"/>
</linearGradient>
<polygon style="fill:url(#SVGID_00000103261298648739545620000005003832893426675645_);" points="322.28,129.1 322.28,221.88 
	308.69,210.02 308.59,209.93 308.59,117.85 308.69,117.93 "/>
<linearGradient id="SVGID_00000130630204787373989410000012114630950104865689_" gradientUnits="userSpaceOnUse" x1="209.1" y1="245.32" x2="209.1" y2="199.21">
	<stop  offset="0" style="stop-color:#231F20;stop-opacity:0.7"/>
	<stop  offset="0.1769" style="stop-color:#201B1C;stop-opacity:0.5762"/>
	<stop  offset="1" style="stop-color:#130C0E;stop-opacity:0"/>
</linearGradient>
<polygon style="fill:url(#SVGID_00000130630204787373989410000012114630950104865689_);" points="240.3,217.66 232,229.18 
	212.62,245.32 177.9,199.21 "/>
<linearGradient id="SVGID_00000165227011229163426760000011694276341057129393_" gradientUnits="userSpaceOnUse" x1="259.1323" y1="236.743" x2="259.1323" y2="194.4285">
	<stop  offset="0" style="stop-color:#231F20;stop-opacity:0.7"/>
	<stop  offset="0.1769" style="stop-color:#201B1C;stop-opacity:0.5762"/>
	<stop  offset="1" style="stop-color:#130C0E;stop-opacity:0"/>
</linearGradient>
<polygon style="fill:url(#SVGID_00000165227011229163426760000011694276341057129393_);" points="232,229.18 240.3,217.66 
	263.17,197.97 286.265,194.429 240.441,236.743 "/>
<linearGradient id="SVGID_00000130622020587857132940000003189882625910193079_" gradientUnits="userSpaceOnUse" x1="175.085" y1="251.944" x2="175.085" y2="200.9672">
	<stop  offset="0" style="stop-color:#231F20;stop-opacity:0.7"/>
	<stop  offset="0.1769" style="stop-color:#201B1C;stop-opacity:0.5762"/>
	<stop  offset="1" style="stop-color:#130C0E;stop-opacity:0"/>
</linearGradient>
<polygon style="fill:url(#SVGID_00000130622020587857132940000003189882625910193079_);" points="212.62,245.32 211.652,246.029 
	177.9,209.4 148.21,245.35 148.21,253.18 137.55,253.18 177.9,199.21 "/>
<linearGradient id="SVGID_00000180330383515745240850000006167942912696637369_" gradientUnits="userSpaceOnUse" x1="128.9822" y1="303.6414" x2="328.3156" y2="154.3081">
	<stop  offset="0" style="stop-color:#231F20;stop-opacity:0.7"/>
	<stop  offset="0.3475" style="stop-color:#171113;stop-opacity:0.3249"/>
	<stop  offset="0.6485" style="stop-color:#130C0E;stop-opacity:0"/>
</linearGradient>
<path style="fill:url(#SVGID_00000180330383515745240850000006167942912696637369_);" d="M387.228,177.367
	c-11.13,34.486-43.366,73.568-89.334,103.711c-72.805,47.728-152.476,54.946-177.925,16.118c-20.754-31.63,0.9-84.072,49-128.221
	c-33.429,36.031-47.005,75.876-30.808,102.342c23.082,37.713,97.804,33.997,166.912-8.294
	C344.703,238.768,373.887,207.099,387.228,177.367z"/>
<linearGradient id="SVGID_00000018230980800952178590000014836813734371795856_" gradientUnits="userSpaceOnUse" x1="201.9984" y1="275.1112" x2="383.7671" y2="275.1112">
	<stop  offset="0" style="stop-color:#231F20;stop-opacity:0.7"/>
	<stop  offset="0.1769" style="stop-color:#201B1C;stop-opacity:0.6116"/>
	<stop  offset="1" style="stop-color:#130C0E;stop-opacity:0.2"/>
</linearGradient>
<path style="fill:url(#SVGID_00000018230980800952178590000014836813734371795856_);" d="M383.767,218.509
	c-0.424,1.097-0.869,2.187-1.341,3.261c-0.471,1.075-0.91,2.179-1.417,3.238c-1.049,2.089-2.059,4.229-3.19,6.287
	c-1.093,2.088-2.263,4.133-3.489,6.14c-1.21,2.023-2.484,4.003-3.793,5.96c-5.241,7.834-11.182,15.2-17.59,22.13
	c-12.867,13.82-27.627,25.86-43.62,35.892c-15.997,10.034-33.252,18.151-51.324,23.702c-9.046,2.735-18.289,4.838-27.647,6.079
	c-2.343,0.293-4.693,0.537-7.034,0.762c-2.352,0.183-4.707,0.321-7.06,0.393c-2.359,0.048-4.717,0.042-7.057,0.04
	c-2.364-0.134-4.706-0.231-7.048-0.465l-0.16-1.189c9.005-1.32,17.905-3.3,26.651-5.79c8.76-2.442,17.384-5.375,25.831-8.749
	c16.89-6.767,33.092-15.208,48.458-24.935c15.431-9.627,30.049-20.587,43.509-32.83c6.728-6.123,13.155-12.577,19.222-19.355
	c6.107-6.741,11.848-13.821,17.11-21.251L383.767,218.509z"/>
<g>
	
		<linearGradient id="SVGID_00000015339981955517947490000007058265941700343961_" gradientUnits="userSpaceOnUse" x1="116.0912" y1="370.771" x2="116.0912" y2="344.5357">
		<stop  offset="0" style="stop-color:#414042"/>
		<stop  offset="1" style="stop-color:#808285"/>
	</linearGradient>
	<path style="fill:url(#SVGID_00000015339981955517947490000007058265941700343961_);" d="M125.353,370.015
		c0.04,0.16,0.08,0.279,0.08,0.319c0,0.278-0.199,0.437-0.596,0.437h-4.373c-0.358,0-0.596-0.159-0.715-0.477l-3.617-8.546h-3.856
		v8.387c0,0.438-0.199,0.636-0.636,0.636h-4.253c-0.437,0-0.636-0.199-0.636-0.636v-24.962c0-0.437,0.199-0.636,0.636-0.636h4.889
		h3.935c6.32,0,8.864,2.385,8.864,8.586c0,4.253-1.193,6.678-3.895,7.831L125.353,370.015z M112.275,357.057h3.259
		c3.021,0,3.895-0.794,3.895-3.935c0-3.06-0.835-3.776-3.895-3.776h-3.259V357.057z"/>
	
		<linearGradient id="SVGID_00000105394486506781196760000009700368013706284420_" gradientUnits="userSpaceOnUse" x1="146.0229" y1="370.771" x2="146.0229" y2="344.5357">
		<stop  offset="0" style="stop-color:#414042"/>
		<stop  offset="1" style="stop-color:#808285"/>
	</linearGradient>
	<path style="fill:url(#SVGID_00000105394486506781196760000009700368013706284420_);" d="M153.655,365.882
		c0.437,0,0.636,0.199,0.636,0.636v3.616c0,0.438-0.199,0.636-0.636,0.636h-12.521h-2.743c-0.437,0-0.636-0.199-0.636-0.636v-24.962
		c0-0.437,0.199-0.636,0.636-0.636h4.889h9.977c0.437,0,0.636,0.2,0.636,0.636v3.617c0,0.437-0.199,0.636-0.636,0.636h-9.977v5.804
		h8.944c0.437,0,0.636,0.199,0.636,0.636v3.538c0,0.437-0.199,0.636-0.636,0.636h-8.944v5.843H153.655z"/>
	
		<linearGradient id="SVGID_00000176740059075945098420000009460226738073559961_" gradientUnits="userSpaceOnUse" x1="175.6301" y1="370.771" x2="175.6301" y2="344.5357">
		<stop  offset="0" style="stop-color:#414042"/>
		<stop  offset="1" style="stop-color:#808285"/>
	</linearGradient>
	<path style="fill:url(#SVGID_00000176740059075945098420000009460226738073559961_);" d="M187.085,370.055
		c0.04,0.079,0.04,0.16,0.04,0.279c0,0.278-0.199,0.437-0.557,0.437h-4.373c-0.358,0-0.596-0.159-0.715-0.516l-1.511-4.77h-8.625
		l-1.51,4.77c-0.12,0.357-0.358,0.516-0.716,0.516h-4.412c-0.477,0-0.676-0.238-0.516-0.716l8.506-25.002
		c0.119-0.358,0.358-0.517,0.715-0.517h4.492c0.358,0,0.596,0.159,0.715,0.517L187.085,370.055z M178.42,360.714l-0.278-0.954
		c-0.676-2.186-1.153-4.054-1.59-5.485c-0.199-0.914-0.517-2.028-0.914-3.339l-0.636,2.425c-0.795,2.863-1.392,5.009-1.829,6.4
		l-0.318,0.954H178.42z"/>
	
		<linearGradient id="SVGID_00000063628864534259545030000009795886967048640437_" gradientUnits="userSpaceOnUse" x1="205.6484" y1="370.771" x2="205.6484" y2="344.5357">
		<stop  offset="0" style="stop-color:#414042"/>
		<stop  offset="1" style="stop-color:#808285"/>
	</linearGradient>
	<path style="fill:url(#SVGID_00000063628864534259545030000009795886967048640437_);" d="M212.485,365.882
		c0.438,0,0.636,0.199,0.636,0.636v3.616c0,0.438-0.199,0.636-0.636,0.636H200.6h-1.788c-0.438,0-0.636-0.199-0.636-0.636v-24.962
		c0-0.437,0.199-0.636,0.636-0.636h4.253c0.437,0,0.636,0.2,0.636,0.636v20.709H212.485z"/>
	
		<linearGradient id="SVGID_00000154422562372127513890000012954587182485313680_" gradientUnits="userSpaceOnUse" x1="248.6178" y1="370.771" x2="248.6178" y2="344.5357">
		<stop  offset="0" style="stop-color:#414042"/>
		<stop  offset="1" style="stop-color:#808285"/>
	</linearGradient>
	<path style="fill:url(#SVGID_00000154422562372127513890000012954587182485313680_);" d="M256.25,365.882
		c0.437,0,0.636,0.199,0.636,0.636v3.616c0,0.438-0.199,0.636-0.636,0.636h-12.521h-2.743c-0.438,0-0.636-0.199-0.636-0.636v-24.962
		c0-0.437,0.199-0.636,0.636-0.636h4.888h9.977c0.438,0,0.636,0.2,0.636,0.636v3.617c0,0.437-0.199,0.636-0.636,0.636h-9.977v5.804
		h8.945c0.437,0,0.636,0.199,0.636,0.636v3.538c0,0.437-0.199,0.636-0.636,0.636h-8.945v5.843H256.25z"/>
	
		<linearGradient id="SVGID_00000031915340220165019010000002589620909064212880_" gradientUnits="userSpaceOnUse" x1="276.4235" y1="371.2477" x2="276.4235" y2="344.0591">
		<stop  offset="0" style="stop-color:#414042"/>
		<stop  offset="1" style="stop-color:#808285"/>
	</linearGradient>
	<path style="fill:url(#SVGID_00000031915340220165019010000002589620909064212880_);" d="M283.4,348.71
		c0,0.437-0.239,0.596-0.716,0.556c-1.868-0.278-3.498-0.477-5.247-0.477c-3.816,0-4.651,0.636-4.651,2.782
		c0,1.788,0.636,2.584,4.373,3.697l1.828,0.556c4.81,1.471,6.439,3.538,6.439,7.672c0,5.446-2.743,7.751-9.779,7.751
		c-2.384,0-4.849-0.278-7.353-0.834c-0.358-0.079-0.557-0.319-0.557-0.756v-3.379c0-0.516,0.238-0.715,0.716-0.596
		c3.299,0.516,5.088,0.756,7.035,0.756c3.379,0,4.492-0.756,4.492-2.982c0-1.788-0.676-2.425-4.81-3.657l-1.351-0.397
		c-4.572-1.431-6.4-3.816-6.4-7.91c0-5.128,2.703-7.433,9.381-7.433c1.948,0,3.975,0.199,6.042,0.636
		c0.357,0.08,0.557,0.319,0.557,0.676V348.71z"/>
	
		<linearGradient id="SVGID_00000038376252920112855820000015954307306552310154_" gradientUnits="userSpaceOnUse" x1="303.3747" y1="370.771" x2="303.3747" y2="344.5357">
		<stop  offset="0" style="stop-color:#414042"/>
		<stop  offset="1" style="stop-color:#808285"/>
	</linearGradient>
	<path style="fill:url(#SVGID_00000038376252920112855820000015954307306552310154_);" d="M311.861,344.536
		c0.438,0,0.636,0.2,0.636,0.636v3.657c0,0.437-0.199,0.636-0.636,0.636h-5.724v20.67c0,0.438-0.199,0.636-0.636,0.636h-4.253
		c-0.437,0-0.636-0.199-0.636-0.636v-20.67h-5.724c-0.437,0-0.636-0.199-0.636-0.636v-3.657c0-0.437,0.199-0.636,0.636-0.636
		H311.861z"/>
	
		<linearGradient id="SVGID_00000124872182419491887400000002298304506594981041_" gradientUnits="userSpaceOnUse" x1="329.9396" y1="370.771" x2="329.9396" y2="344.5357">
		<stop  offset="0" style="stop-color:#414042"/>
		<stop  offset="1" style="stop-color:#808285"/>
	</linearGradient>
	<path style="fill:url(#SVGID_00000124872182419491887400000002298304506594981041_);" d="M341.395,370.055
		c0.04,0.079,0.04,0.16,0.04,0.279c0,0.278-0.199,0.437-0.556,0.437h-4.373c-0.357,0-0.596-0.159-0.715-0.516l-1.51-4.77h-8.626
		l-1.51,4.77c-0.119,0.357-0.358,0.516-0.716,0.516h-4.412c-0.478,0-0.676-0.238-0.517-0.716l8.507-25.002
		c0.119-0.358,0.357-0.517,0.716-0.517h4.491c0.357,0,0.597,0.159,0.716,0.517L341.395,370.055z M332.73,360.714l-0.279-0.954
		c-0.675-2.186-1.153-4.054-1.59-5.485c-0.199-0.914-0.516-2.028-0.915-3.339l-0.636,2.425c-0.795,2.863-1.391,5.009-1.829,6.4
		l-0.318,0.954H332.73z"/>
	
		<linearGradient id="SVGID_00000037682739193781881160000003151405713688586426_" gradientUnits="userSpaceOnUse" x1="356.6" y1="370.771" x2="356.6" y2="344.5357">
		<stop  offset="0" style="stop-color:#414042"/>
		<stop  offset="1" style="stop-color:#808285"/>
	</linearGradient>
	<path style="fill:url(#SVGID_00000037682739193781881160000003151405713688586426_);" d="M365.086,344.536
		c0.438,0,0.636,0.2,0.636,0.636v3.657c0,0.437-0.199,0.636-0.636,0.636h-5.724v20.67c0,0.438-0.199,0.636-0.636,0.636h-4.253
		c-0.437,0-0.636-0.199-0.636-0.636v-20.67h-5.724c-0.437,0-0.636-0.199-0.636-0.636v-3.657c0-0.437,0.199-0.636,0.636-0.636
		H365.086z"/>
	
		<linearGradient id="SVGID_00000144326818753367165800000017186908244259709830_" gradientUnits="userSpaceOnUse" x1="385.3987" y1="370.771" x2="385.3987" y2="344.5357">
		<stop  offset="0" style="stop-color:#414042"/>
		<stop  offset="1" style="stop-color:#808285"/>
	</linearGradient>
	<path style="fill:url(#SVGID_00000144326818753367165800000017186908244259709830_);" d="M393.031,365.882
		c0.437,0,0.636,0.199,0.636,0.636v3.616c0,0.438-0.199,0.636-0.636,0.636H380.51h-2.743c-0.438,0-0.636-0.199-0.636-0.636v-24.962
		c0-0.437,0.199-0.636,0.636-0.636h4.888h9.977c0.438,0,0.636,0.2,0.636,0.636v3.617c0,0.437-0.199,0.636-0.636,0.636h-9.977v5.804
		h8.944c0.438,0,0.636,0.199,0.636,0.636v3.538c0,0.437-0.199,0.636-0.636,0.636h-8.944v5.843H393.031z"/>
</g>
<g>
	<path style="fill:#414042;" d="M129.859,383.179c2.072,0,2.913,0.751,2.913,2.706s-0.841,2.719-2.913,2.719h-1.528v2.914
		c0,0.142-0.065,0.207-0.207,0.207h-0.673c-0.143,0-0.207-0.065-0.207-0.207v-8.132c0-0.143,0.065-0.208,0.207-0.208h0.88H129.859z
		 M129.82,387.646c1.463,0,1.826-0.337,1.826-1.761c0-1.398-0.362-1.748-1.826-1.748h-1.489v3.509H129.82z"/>
	<path style="fill:#414042;" d="M146.193,391.479c0.013,0.052,0.026,0.091,0.026,0.104c0,0.091-0.065,0.143-0.194,0.143h-0.712
		c-0.116,0-0.195-0.051-0.233-0.155l-1.411-3.082c-0.065,0.013-0.155,0.013-0.297,0.013h-1.567v3.018
		c0,0.142-0.065,0.207-0.207,0.207h-0.673c-0.143,0-0.207-0.065-0.207-0.207v-8.132c0-0.143,0.065-0.208,0.207-0.208h0.88h1.567
		c2.007,0,2.836,0.751,2.836,2.655c0,1.398-0.466,2.175-1.463,2.486L146.193,391.479z M143.331,387.543
		c1.373,0,1.748-0.337,1.748-1.709c0-1.36-0.376-1.696-1.748-1.696h-1.528v3.405H143.331z"/>
	<path style="fill:#414042;" d="M153.942,387.452c0-3.186,1.049-4.429,3.419-4.429s3.418,1.243,3.418,4.429
		c0,3.185-1.049,4.428-3.418,4.428S153.942,390.637,153.942,387.452z M159.627,387.452c0-2.642-0.557-3.445-2.266-3.445
		c-1.709,0-2.279,0.816-2.279,3.445c0,2.628,0.57,3.444,2.279,3.444C159.071,390.896,159.627,390.094,159.627,387.452z"/>
	<path style="fill:#414042;" d="M173.681,383.179c0.143,0,0.207,0.065,0.207,0.208v0.57c0,0.143-0.065,0.207-0.207,0.207h-3.652
		v2.797h3.173c0.142,0,0.207,0.065,0.207,0.208v0.543c0,0.143-0.065,0.208-0.207,0.208h-3.173v3.6c0,0.142-0.065,0.207-0.207,0.207
		h-0.673c-0.143,0-0.207-0.065-0.207-0.207v-8.132c0-0.143,0.065-0.208,0.207-0.208h0.88H173.681z"/>
	<path style="fill:#414042;" d="M186.663,390.741c0.142,0,0.207,0.065,0.207,0.207v0.571c0,0.142-0.065,0.207-0.207,0.207h-4.053
		h-0.622c-0.143,0-0.207-0.065-0.207-0.207v-8.132c0-0.143,0.065-0.208,0.207-0.208h0.88h3.665c0.143,0,0.207,0.065,0.207,0.208
		v0.57c0,0.143-0.065,0.207-0.207,0.207h-3.665v2.797h3.173c0.142,0,0.207,0.065,0.207,0.208v0.543c0,0.143-0.065,0.208-0.207,0.208
		h-3.173v2.823H186.663z"/>
	<path style="fill:#414042;" d="M199.164,383.995c0,0.143-0.091,0.22-0.233,0.181c-0.764-0.143-1.101-0.181-1.657-0.181
		c-1.398,0-1.826,0.323-1.826,1.307c0,0.829,0.324,1.204,1.373,1.528l0.699,0.22c1.735,0.531,2.253,1.088,2.253,2.382
		c0,1.71-0.906,2.447-2.966,2.447c-0.738,0-1.463-0.09-2.201-0.272c-0.116-0.039-0.181-0.116-0.181-0.233v-0.557
		c0-0.155,0.078-0.22,0.233-0.181c0.479,0.091,0.868,0.169,1.152,0.208s0.596,0.064,0.919,0.064c1.398,0,1.942-0.376,1.942-1.45
		c0-0.777-0.259-1.062-1.411-1.425l-0.699-0.207c-1.671-0.518-2.227-1.204-2.227-2.461c0-1.605,0.868-2.344,2.849-2.344
		c0.596,0,1.191,0.065,1.8,0.194c0.116,0.026,0.181,0.104,0.181,0.22V383.995z"/>
	<path style="fill:#414042;" d="M211.938,383.995c0,0.143-0.09,0.22-0.233,0.181c-0.764-0.143-1.1-0.181-1.657-0.181
		c-1.398,0-1.826,0.323-1.826,1.307c0,0.829,0.324,1.204,1.373,1.528l0.699,0.22c1.735,0.531,2.253,1.088,2.253,2.382
		c0,1.71-0.906,2.447-2.965,2.447c-0.738,0-1.463-0.09-2.201-0.272c-0.116-0.039-0.181-0.116-0.181-0.233v-0.557
		c0-0.155,0.078-0.22,0.233-0.181c0.479,0.091,0.868,0.169,1.152,0.208s0.596,0.064,0.919,0.064c1.398,0,1.942-0.376,1.942-1.45
		c0-0.777-0.259-1.062-1.411-1.425l-0.699-0.207c-1.671-0.518-2.227-1.204-2.227-2.461c0-1.605,0.868-2.344,2.849-2.344
		c0.596,0,1.191,0.065,1.8,0.194c0.116,0.026,0.181,0.104,0.181,0.22V383.995z"/>
	<path style="fill:#414042;" d="M220.71,391.725c-0.142,0-0.207-0.065-0.207-0.207v-8.132c0-0.143,0.065-0.208,0.207-0.208h0.673
		c0.143,0,0.208,0.065,0.208,0.208v8.132c0,0.142-0.065,0.207-0.208,0.207H220.71z"/>
	<path style="fill:#414042;" d="M229.756,387.452c0-3.186,1.049-4.429,3.419-4.429c2.37,0,3.419,1.243,3.419,4.429
		c0,3.185-1.049,4.428-3.419,4.428C230.805,391.88,229.756,390.637,229.756,387.452z M235.441,387.452
		c0-2.642-0.557-3.445-2.266-3.445s-2.279,0.816-2.279,3.445c0,2.628,0.571,3.444,2.279,3.444S235.441,390.094,235.441,387.452z"/>
	<path style="fill:#414042;" d="M251.011,383.179c0.143,0,0.207,0.065,0.207,0.208v8.132c0,0.142-0.064,0.207-0.207,0.207h-0.725
		c-0.104,0-0.181-0.051-0.246-0.143l-3.211-4.972c-0.194-0.298-0.441-0.712-0.751-1.268c-0.091-0.143-0.181-0.324-0.298-0.532
		c0,0.169,0.013,0.428,0.026,0.777c0.025,0.349,0.039,0.686,0.039,1.023v4.908c0,0.142-0.065,0.207-0.208,0.207h-0.673
		c-0.142,0-0.207-0.065-0.207-0.207v-8.132c0-0.143,0.065-0.208,0.207-0.208h0.726c0.103,0,0.181,0.052,0.246,0.143l3.211,4.972
		c0.181,0.272,0.402,0.647,0.661,1.1l0.388,0.673l-0.013-0.363c-0.039-0.634-0.052-1.113-0.052-1.411v-4.907
		c0-0.143,0.065-0.208,0.208-0.208H251.011z"/>
	<path style="fill:#414042;" d="M265.648,391.492c0.013,0.026,0.013,0.051,0.013,0.09c0,0.091-0.065,0.143-0.181,0.143h-0.66
		c-0.116,0-0.195-0.051-0.234-0.168l-0.66-1.955h-3.264l-0.66,1.955c-0.039,0.116-0.116,0.168-0.233,0.168h-0.661
		c-0.155,0-0.22-0.078-0.168-0.233l2.744-8.145c0.039-0.116,0.116-0.169,0.234-0.169h0.751c0.116,0,0.194,0.052,0.233,0.169
		L265.648,391.492z M263.615,388.657l-0.661-1.93c-0.129-0.401-0.259-0.854-0.402-1.346c-0.09-0.259-0.155-0.557-0.258-0.881
		c-0.091,0.298-0.169,0.544-0.22,0.764c-0.039,0.13-0.104,0.35-0.194,0.661c-0.091,0.324-0.181,0.582-0.259,0.803l-0.648,1.93
		H263.615z"/>
	<path style="fill:#414042;" d="M277.735,390.741c0.142,0,0.207,0.065,0.207,0.207v0.571c0,0.142-0.065,0.207-0.207,0.207h-3.665
		h-0.492c-0.142,0-0.207-0.065-0.207-0.207v-8.132c0-0.143,0.065-0.208,0.207-0.208h0.673c0.143,0,0.208,0.065,0.208,0.208v7.355
		H277.735z"/>
	<path style="fill:#414042;" d="M298.404,383.179c0.143,0,0.207,0.065,0.207,0.208v0.57c0,0.143-0.064,0.207-0.207,0.207h-1.968
		v7.356c0,0.142-0.065,0.207-0.208,0.207h-0.686c-0.143,0-0.208-0.065-0.208-0.207v-7.356h-1.981c-0.143,0-0.208-0.064-0.208-0.207
		v-0.57c0-0.143,0.065-0.208,0.208-0.208H298.404z"/>
	<path style="fill:#414042;" d="M311.386,391.492c0.013,0.026,0.013,0.051,0.013,0.09c0,0.091-0.065,0.143-0.181,0.143h-0.66
		c-0.116,0-0.195-0.051-0.234-0.168l-0.66-1.955H306.4l-0.66,1.955c-0.039,0.116-0.116,0.168-0.233,0.168h-0.661
		c-0.155,0-0.22-0.078-0.168-0.233l2.744-8.145c0.039-0.116,0.116-0.169,0.234-0.169h0.751c0.116,0,0.194,0.052,0.233,0.169
		L311.386,391.492z M309.353,388.657l-0.661-1.93c-0.129-0.401-0.259-0.854-0.402-1.346c-0.09-0.259-0.155-0.557-0.258-0.881
		c-0.091,0.298-0.169,0.544-0.22,0.764c-0.039,0.13-0.104,0.35-0.194,0.661c-0.091,0.324-0.181,0.582-0.259,0.803l-0.648,1.93
		H309.353z"/>
	<path style="fill:#414042;" d="M324.211,387.102c0.142,0,0.207,0.065,0.207,0.208v3.923c0,0.129-0.051,0.207-0.168,0.246
		c-0.738,0.273-1.502,0.402-2.267,0.402c-2.447,0-3.587-1.282-3.587-4.48c0-3.146,1.075-4.377,3.678-4.377
		c0.557,0,1.165,0.065,1.825,0.181c0.116,0.026,0.181,0.104,0.181,0.233v0.543c0,0.169-0.09,0.22-0.284,0.181
		c-0.635-0.103-1.218-0.155-1.722-0.155c-1.929,0.052-2.499,0.647-2.539,3.406c0,2.758,0.661,3.522,2.5,3.522
		c0.479,0,0.906-0.051,1.308-0.155v-2.707h-1.477c-0.142,0-0.207-0.065-0.207-0.207v-0.557c0-0.143,0.065-0.208,0.207-0.208H324.211
		z"/>
	<path style="fill:#414042;" d="M336.984,390.741c0.142,0,0.207,0.065,0.207,0.207v0.571c0,0.142-0.065,0.207-0.207,0.207h-3.665
		h-0.492c-0.142,0-0.207-0.065-0.207-0.207v-8.132c0-0.143,0.065-0.208,0.207-0.208h0.673c0.143,0,0.208,0.065,0.208,0.208v7.355
		H336.984z"/>
	<path style="fill:#414042;" d="M345.277,391.725c-0.142,0-0.207-0.065-0.207-0.207v-8.132c0-0.143,0.065-0.208,0.207-0.208h0.673
		c0.143,0,0.208,0.065,0.208,0.208v8.132c0,0.142-0.065,0.207-0.208,0.207H345.277z"/>
	<path style="fill:#414042;" d="M360.902,383.179c0.143,0,0.207,0.065,0.207,0.208v8.132c0,0.142-0.064,0.207-0.207,0.207h-0.725
		c-0.104,0-0.181-0.051-0.246-0.143l-3.211-4.972c-0.194-0.298-0.441-0.712-0.751-1.268c-0.091-0.143-0.181-0.324-0.298-0.532
		c0,0.169,0.013,0.428,0.026,0.777c0.025,0.349,0.039,0.686,0.039,1.023v4.908c0,0.142-0.065,0.207-0.208,0.207h-0.673
		c-0.142,0-0.207-0.065-0.207-0.207v-8.132c0-0.143,0.065-0.208,0.207-0.208h0.726c0.103,0,0.181,0.052,0.246,0.143l3.211,4.972
		c0.181,0.272,0.402,0.647,0.661,1.1l0.388,0.673l-0.013-0.363c-0.039-0.634-0.052-1.113-0.052-1.411v-4.907
		c0-0.143,0.065-0.208,0.208-0.208H360.902z"/>
	<path style="fill:#414042;" d="M374.477,390.741c0.143,0,0.208,0.065,0.208,0.207v0.571c0,0.142-0.065,0.207-0.208,0.207h-4.053
		h-0.622c-0.142,0-0.207-0.065-0.207-0.207v-8.132c0-0.143,0.065-0.208,0.207-0.208h0.881h3.664c0.143,0,0.207,0.065,0.207,0.208
		v0.57c0,0.143-0.064,0.207-0.207,0.207h-3.664v2.797h3.172c0.143,0,0.207,0.065,0.207,0.208v0.543c0,0.143-0.064,0.208-0.207,0.208
		h-3.172v2.823H374.477z"/>
</g>
<linearGradient id="SVGID_00000008866863467826015500000001702382022071346361_" gradientUnits="userSpaceOnUse" x1="167.971" y1="255.8253" x2="275.9019" y2="255.8253">
	<stop  offset="0" style="stop-color:#231F20;stop-opacity:0.7"/>
	<stop  offset="0.4165" style="stop-color:#171113;stop-opacity:0.3249"/>
	<stop  offset="0.7772" style="stop-color:#130C0E;stop-opacity:0"/>
</linearGradient>
<polygon style="fill:url(#SVGID_00000008866863467826015500000001702382022071346361_);" points="275.902,268.8 231.931,229.05 
	167.971,282.601 231.901,239.437 261.354,261.3 261.354,268.8 "/>
<linearGradient id="SVGID_00000026864067729455340930000015919700652365759914_" gradientUnits="userSpaceOnUse" x1="211.2276" y1="180.0338" x2="202.8545" y2="144.48">
	<stop  offset="0" style="stop-color:#FFFFFF;stop-opacity:0.3"/>
	<stop  offset="0.6485" style="stop-color:#FFFFFF;stop-opacity:0"/>
</linearGradient>
<path style="fill:url(#SVGID_00000026864067729455340930000015919700652365759914_);" d="M192.13,155.91l27.81-16.64l-0.03,38.76
	c-10.2,0.62-19.59,0.16-27.78-1.33V155.91z"/>
<linearGradient id="SVGID_00000057144970503758473070000002925956826620818099_" gradientUnits="userSpaceOnUse" x1="227.1578" y1="176.8858" x2="218.7717" y2="141.2772">
	<stop  offset="0" style="stop-color:#FFFFFF;stop-opacity:0.3"/>
	<stop  offset="0.6485" style="stop-color:#FFFFFF;stop-opacity:0"/>
</linearGradient>
<path style="fill:url(#SVGID_00000057144970503758473070000002925956826620818099_);" d="M222.25,139.27l1.37,0.77v37.72
	c-0.46,0.04-0.91,0.08-1.37,0.11V139.27z"/>
<linearGradient id="SVGID_00000090286665210763298490000016533097686459968141_" gradientUnits="userSpaceOnUse" x1="230.3984" y1="176.6193" x2="222.5093" y2="143.1209">
	<stop  offset="0" style="stop-color:#FFFFFF;stop-opacity:0.3"/>
	<stop  offset="0.6485" style="stop-color:#FFFFFF;stop-opacity:0"/>
</linearGradient>
<path style="fill:url(#SVGID_00000090286665210763298490000016533097686459968141_);" d="M225.75,141.24l1.37,0.77v35.42
	c-0.46,0.05-0.91,0.1-1.37,0.14V141.24z"/>
<linearGradient id="SVGID_00000139991427955450356030000013291284236597502377_" gradientUnits="userSpaceOnUse" x1="233.6335" y1="176.2842" x2="226.2542" y2="144.951">
	<stop  offset="0" style="stop-color:#FFFFFF;stop-opacity:0.3"/>
	<stop  offset="0.6485" style="stop-color:#FFFFFF;stop-opacity:0"/>
</linearGradient>
<path style="fill:url(#SVGID_00000139991427955450356030000013291284236597502377_);" d="M229.25,143.2l1.37,0.77v33.06
	c-0.46,0.06-0.92,0.11-1.37,0.16V143.2z"/>
<linearGradient id="SVGID_00000166652775642269797900000002229877155068401793_" gradientUnits="userSpaceOnUse" x1="236.8573" y1="175.8718" x2="230.0075" y2="146.7863">
	<stop  offset="0" style="stop-color:#FFFFFF;stop-opacity:0.3"/>
	<stop  offset="0.6485" style="stop-color:#FFFFFF;stop-opacity:0"/>
</linearGradient>
<path style="fill:url(#SVGID_00000166652775642269797900000002229877155068401793_);" d="M232.75,145.17l1.37,0.76v30.62
	c-0.46,0.07-0.92,0.13-1.37,0.2V145.17z"/>
<linearGradient id="SVGID_00000103981176763395377440000013376442458223540108_" gradientUnits="userSpaceOnUse" x1="240.0768" y1="175.4005" x2="233.7671" y2="148.6087">
	<stop  offset="0" style="stop-color:#FFFFFF;stop-opacity:0.3"/>
	<stop  offset="0.6485" style="stop-color:#FFFFFF;stop-opacity:0"/>
</linearGradient>
<path style="fill:url(#SVGID_00000103981176763395377440000013376442458223540108_);" d="M236.25,147.13l1.37,0.77v28.11
	c-0.46,0.07-0.92,0.15-1.37,0.21V147.13z"/>
<linearGradient id="SVGID_00000057871093057718429160000007779823256696012465_" gradientUnits="userSpaceOnUse" x1="243.2851" y1="174.852" x2="237.5329" y2="150.4271">
	<stop  offset="0" style="stop-color:#FFFFFF;stop-opacity:0.3"/>
	<stop  offset="0.6485" style="stop-color:#FFFFFF;stop-opacity:0"/>
</linearGradient>
<path style="fill:url(#SVGID_00000057871093057718429160000007779823256696012465_);" d="M239.75,149.09l1.37,0.77v25.53
	c-0.46,0.09-0.92,0.17-1.37,0.25V149.09z"/>
<linearGradient id="SVGID_00000120546122576123826310000016439329902575829894_" gradientUnits="userSpaceOnUse" x1="243.3848" y1="174.9846" x2="222.7332" y2="87.295">
	<stop  offset="0" style="stop-color:#FFFFFF;stop-opacity:0.3"/>
	<stop  offset="0.6485" style="stop-color:#FFFFFF;stop-opacity:0"/>
</linearGradient>
<path style="fill:url(#SVGID_00000120546122576123826310000016439329902575829894_);" d="M208.76,111.9l38.98-33.42v95.58
	c-1.5,0.32-2.99,0.63-4.46,0.92l0.02-26.29l-22.81-12.83l-11.73,7.1V111.9z"/>
<linearGradient id="SVGID_00000016761466397712900870000013237503698072246410_" gradientUnits="userSpaceOnUse" x1="260.9976" y1="170.8599" x2="240.6701" y2="84.5465">
	<stop  offset="0" style="stop-color:#FFFFFF;stop-opacity:0.3"/>
	<stop  offset="0.6485" style="stop-color:#FFFFFF;stop-opacity:0"/>
</linearGradient>
<path style="fill:url(#SVGID_00000016761466397712900870000013237503698072246410_);" d="M249.87,79.5l1.58,0.85v92.85
	c-0.53,0.13-1.06,0.25-1.58,0.38V79.5z"/>
<linearGradient id="SVGID_00000049219071311537778360000010792192569205249941_" gradientUnits="userSpaceOnUse" x1="264.3786" y1="170.0405" x2="244.6756" y2="86.3784">
	<stop  offset="0" style="stop-color:#FFFFFF;stop-opacity:0.3"/>
	<stop  offset="0.6485" style="stop-color:#FFFFFF;stop-opacity:0"/>
</linearGradient>
<path style="fill:url(#SVGID_00000049219071311537778360000010792192569205249941_);" d="M253.58,81.49l1.56,0.83v89.96
	c-0.52,0.14-1.04,0.27-1.56,0.4V81.49z"/>
<linearGradient id="SVGID_00000065758073479588530930000002310074724872355738_" gradientUnits="userSpaceOnUse" x1="267.7524" y1="169.1604" x2="248.6825" y2="88.1864">
	<stop  offset="0" style="stop-color:#FFFFFF;stop-opacity:0.3"/>
	<stop  offset="0.6485" style="stop-color:#FFFFFF;stop-opacity:0"/>
</linearGradient>
<path style="fill:url(#SVGID_00000065758073479588530930000002310074724872355738_);" d="M257.28,83.46l1.56,0.83v87
	c-0.52,0.15-1.04,0.29-1.56,0.43V83.46z"/>
<linearGradient id="SVGID_00000020362135997254268780000005518692560311147691_" gradientUnits="userSpaceOnUse" x1="271.112" y1="168.2113" x2="252.6902" y2="89.9898">
	<stop  offset="0" style="stop-color:#FFFFFF;stop-opacity:0.3"/>
	<stop  offset="0.6485" style="stop-color:#FFFFFF;stop-opacity:0"/>
</linearGradient>
<path style="fill:url(#SVGID_00000020362135997254268780000005518692560311147691_);" d="M260.97,85.43l1.57,0.84v83.96
	c-0.53,0.16-1.05,0.32-1.57,0.46V85.43z"/>
<linearGradient id="SVGID_00000028285091456714755080000008490522735429146011_" gradientUnits="userSpaceOnUse" x1="290.4424" y1="162.6994" x2="276.0566" y2="101.6149">
	<stop  offset="0" style="stop-color:#FFFFFF;stop-opacity:0.3"/>
	<stop  offset="0.6485" style="stop-color:#FFFFFF;stop-opacity:0"/>
</linearGradient>
<path style="fill:url(#SVGID_00000028285091456714755080000008490522735429146011_);" d="M272.82,112.63l20.42-17.1v63.15
	c-5.82,2.7-11.93,5.21-18.28,7.49c-0.71,0.26-1.43,0.51-2.14,0.75V112.63z"/>
<linearGradient id="SVGID_00000016033429806046191950000011620998073746716574_" gradientUnits="userSpaceOnUse" x1="303.1063" y1="155.8063" x2="289.2976" y2="97.1723">
	<stop  offset="0" style="stop-color:#FFFFFF;stop-opacity:0.3"/>
	<stop  offset="0.6485" style="stop-color:#FFFFFF;stop-opacity:0"/>
</linearGradient>
<path style="fill:url(#SVGID_00000016033429806046191950000011620998073746716574_);" d="M295.47,93.9l1.53,0.97v62.03
	c-0.56,0.27-1.12,0.55-1.69,0.81V93.8L295.47,93.9z"/>
<linearGradient id="SVGID_00000159441331440649425620000015567084627549355450_" gradientUnits="userSpaceOnUse" x1="306.4399" y1="154.0549" x2="293.5668" y2="99.3934">
	<stop  offset="0" style="stop-color:#FFFFFF;stop-opacity:0.3"/>
	<stop  offset="0.6485" style="stop-color:#FFFFFF;stop-opacity:0"/>
</linearGradient>
<path style="fill:url(#SVGID_00000159441331440649425620000015567084627549355450_);" d="M299.17,96.25l1.58,1v57.78
	c-0.52,0.27-1.05,0.54-1.58,0.8V96.25z"/>
<linearGradient id="SVGID_00000140697922367292723950000000163448798030391682_" gradientUnits="userSpaceOnUse" x1="309.5241" y1="151.6605" x2="302.3159" y2="121.0536">
	<stop  offset="0" style="stop-color:#FFFFFF;stop-opacity:0.3"/>
	<stop  offset="0.6485" style="stop-color:#FFFFFF;stop-opacity:0"/>
</linearGradient>
<path style="fill:url(#SVGID_00000140697922367292723950000000163448798030391682_);" d="M305.09,119.88l1.44-0.84v32.91
	c-0.47,0.27-0.95,0.53-1.44,0.79V119.88z"/>
<linearGradient id="SVGID_00000029733713626630251210000017388699691690247297_" gradientUnits="userSpaceOnUse" x1="317.4885" y1="148.6695" x2="310.3692" y2="118.4396">
	<stop  offset="0" style="stop-color:#FFFFFF;stop-opacity:0.3"/>
	<stop  offset="0.6485" style="stop-color:#FFFFFF;stop-opacity:0"/>
</linearGradient>
<path style="fill:url(#SVGID_00000029733713626630251210000017388699691690247297_);" d="M322.28,129.1v13.09
	c-4.26,2.97-8.83,5.85-13.69,8.61v-32.95l0.1,0.08L322.28,129.1z"/>
</svg>
