<svg height="300" viewBox="0 0 48 48" width="300" xmlns="http://www.w3.org/2000/svg" version="1.1" xmlns:xlink="http://www.w3.org/1999/xlink" xmlns:svgjs="http://svgjs.dev/svgjs"><g width="100%" height="100%" transform="matrix(1,0,0,1,0,0)"><g id="Outline"><g id="Outline-2" data-name="Outline"><path d="m38.962 31.823a21.079 21.079 0 1 0 -7.055 7.088l7.447 7.445a5 5 0 0 0 7.071-7.071zm-17.962 9.177a20 20 0 1 1 20-20 20.023 20.023 0 0 1 -20 20zm24.718 4.649a4.1 4.1 0 0 1 -5.657 0l-7.279-7.277a21.162 21.162 0 0 0 5.645-5.67l7.291 7.29a4.02 4.02 0 0 1 0 5.657z" fill="#e86822" fill-opacity="1" data-original-color="#000000ff" stroke="none" stroke-opacity="1"/><path d="m21 6a15 15 0 1 0 15 15 15.017 15.017 0 0 0 -15-15zm0 29a14 14 0 1 1 14-14 14.015 14.015 0 0 1 -14 14z" fill="#e86822" fill-opacity="1" data-original-color="#000000ff" stroke="none" stroke-opacity="1"/><path d="m22.7 12.306a2.511 2.511 0 0 0 -3.392 0l-7.369 6.8a1.505 1.505 0 0 0 -.154 2.039l.588.735a1.492 1.492 0 0 0 1.627.489v5.631a2 2 0 0 0 2 2h10a2 2 0 0 0 2-2v-5.64a1.465 1.465 0 0 0 1.631-.476l.588-.735a1.505 1.505 0 0 0 -.154-2.039zm.3 16.694h-4v-4.5a.5.5 0 0 1 .5-.5h3a.5.5 0 0 1 .5.5zm4-1a1 1 0 0 1 -1 1h-2v-4.5a1.5 1.5 0 0 0 -1.5-1.5h-3a1.5 1.5 0 0 0 -1.5 1.5v4.5h-2a1 1 0 0 1 -1-1v-6.359l6-5.54 6 5.54zm2.438-7.476-.588.735a.5.5 0 0 1 -.729.055l-6.443-5.949a1.007 1.007 0 0 0 -1.357 0l-6.442 5.948a.5.5 0 0 1 -.729-.055l-.588-.735a.5.5 0 0 1 .052-.679l7.368-6.8a1.513 1.513 0 0 1 2.036 0l7.368 6.805a.5.5 0 0 1 .052.675z" fill="#e86822" fill-opacity="1" data-original-color="#000000ff" stroke="none" stroke-opacity="1"/></g></g></g></svg>